<svg xmlns="http://www.w3.org/2000/svg" xmlns:xlink="http://www.w3.org/1999/xlink" width="120" height="150" stroke="#000" stroke-linecap="round" stroke-linejoin="round" fill="#fff" fill-rule="evenodd"><style><![CDATA[.B{fill:none}.C{fill:#000}.D{stroke:none}.E{fill-opacity:.64}.F{stroke:#233f7a}.G{stroke-opacity:.53}.H{stroke-width:.6901}.I{stroke-width:2.0702}.J{stroke-width:.641}.K{stroke-width:1.1126}.L{stroke-width:3.3378}]]></style><defs><linearGradient id="A" x1="50%" y1="100%" x2="50%" y2="0%"><stop offset="26%" stop-color="#f19f7b"/><stop offset="55%" stop-color="#6ca2e3"/><stop offset="99%" stop-color="#1069d7"/></linearGradient><linearGradient id="B" x1="100%" y1="89%" x2="0%" y2="11%"><stop offset="0%" stop-color="#c2ebff"/><stop offset="29%" stop-color="#0af"/><stop offset="82%" stop-color="#001d42"/></linearGradient><linearGradient id="C" x1="33%" y1="0%" x2="67%" y2="100%"><stop offset="0%" stop-color="#c2ebff"/><stop offset="29%" stop-color="#0af"/><stop offset="99%" stop-color="#001d42"/></linearGradient><linearGradient id="D" x1="50%" y1="100%" x2="50%" y2="0%"><stop offset="4%" stop-color="#f19f7b"/><stop offset="85%" stop-color="#1069d7"/></linearGradient><linearGradient id="E" x1="6%" y1="100%" x2="94%" y2="0%"><stop offset="33%" stop-color="#f19f7b"/><stop offset="100%" stop-color="#1069d7"/></linearGradient><linearGradient id="F" x1="11%" y1="100%" x2="89%" y2="0%"><stop offset="4%" stop-color="#f19f7b"/><stop offset="85%" stop-color="#1069d7"/></linearGradient><linearGradient id="G" x1="33%" y1="100%" x2="67%" y2="0%"><stop offset="2%" stop-color="#f19f7b"/><stop offset="80%" stop-color="#6ca2e3"/></linearGradient><linearGradient id="H" x1="0%" y1="0%" x2="100%" y2="100%"><stop offset="0%" stop-color="#fff0cd"/><stop offset="99%" stop-color="#e6ac00"/></linearGradient><filter id="I" x="-2.8409%" y="-2.6965%" width="105.6818%" height="105.3929%"><feGaussianBlur in="SourceGraphic" stdDeviation="3"/></filter></defs><path d="M-.5 1499.5h1200V-.5H-.5z" fill="url(#A)" class="D"/><g stroke="#fff"><circle cx="1019" cy="878" stroke-width=".5" r="2.5"/><path d="M969.5 887q33-22.5 44-13.5 2 7.0001-10 6.0001Q992 879.5 969.5 887z"/></g><g class="D"><path d="M937 899.5q40-12.5 52.5-15 30-5 15 25-7.5 15 10 25 12.5 12.5-5 21-72.5 0-72.5-56z"/><path d="M466.6154 1151.5749q16.0256 16.0257 11.2179 28.8462-6.4102 6.4102-22.4359-6.4103-17.6282-12.8205-25.641 1.6026-11.2179 4.8077-24.0384-3.2052-17.6282-9.6153-24.0385-22.4358 23.7179-10.577 53.2051-8.654 12.5-.9614 31.7308 10.2565z" fill="#036"/><path d="M769.5 1337.4724q-121.7949 32.0513-230.7693 38.4616-169.8718-6.4103-192.3077-141.0257-6.4102-105.7692 128.2052-73.7179-38.4616-60.8975-128.2052-83.3334-128.2051-25.6411-201.923 54.4872-48.077 44.8718-86.5385 96.1538-35.2564 44.8719-57.6923 73.7179 0 128.2052 0 150.6411 0 0 769.2308 0 0 0 0-115.3846z" fill="url(#B)"/></g><path d="M-102.2949 1276.5749q0 0-3.2051 0" class="B F G J"/><path d="M386.4871 1090.6774q-149.0384-22.4359-267.6282 105.7693Q51.5513 1263.7544.2692 1331.0621q0 0 0-28.8462Q94.5 1129.5 217 1082q81.7308-28.8462 169.4871 8.6774z" class="D"/><path d="M456.5 1137.5001q-102-18.0001-182 42 81.2308-41.3185 182-42z" fill="#036" stroke="#036" class="J"/><g class="D"><path d="M291.9359 1145.1646q-89.7436 51.2821-121.7949 166.6667 38.4615-92.9487 123.3974-145.8333Q368.359 1123.0769 456.5 1137.5q-11.2179-14.4231-28.3462-24.3866-56.0897-6.4103-136.2179 32.0512z"/><path d="M769.5 1452.8569q-363.7821 12.8205-421.4744-208.3333 41.6667 150.641 241.9872 128.2051 99.359-12.8205 179.4872-35.2564 0 115.3846 0 115.3846zm-432.6923 0q-22.4359-54.4872-12.8205-160.2564-6.4102 102.5641 51.2821 160.2564 0 0-38.4616 0z" class="C"/><path d="M473.7308 979.1693q-25.0916 27.8782-17.5641 50.1807 10.0366 11.1512 35.1282-11.1513 27.6007-22.3025 40.1465 2.7878 17.5641 8.3635 37.6374-5.5756 27.6007-16.7269 37.6374-39.0294-37.1356-18.3995-83.3041-15.0543-19.5714-1.6724-49.6813 17.8421z" fill="#036"/><path d="M-.5 1302.5555q190.696 55.7562 361.3187 66.9074 265.9707-11.1511 301.0989-245.3274 17.5641-194.5354-193.2051-138.7792 63.7326-100.5906 193.2051-134.4262 200.7326-44.6051 316.1538 94.7855 75.2748 78.0588 135.4945 167.2687 55.2015 78.0588 90.3297 128.2393 0 223.0249 0 262.0543 0 0-1204.3956 0 0 0 0-200.7224z" fill="url(#C)"/></g><path d="M1364.4817 1196.6187q0 0 5.0183 0" class="B F G"/><path d="M593.6685 875.7126q238.8718-41.5094 424.5495 181.5155 105.3846 117.0881 185.6776 234.1762 0 0 0-50.1806-160.5861-321.2513-336.2271-381.6056-133.4872-47.7006-274 16.0945zm153.5605 92.3056q150.5494 87.7515 180.6593 304.0211-60.2198-161.693-183.1685-267.7796-195.7143-104.4054-276.0073-18.9034 20.0733-35.2067 65.2381-73.0944 87.8205-11.1512 213.2784 55.7563z" stroke="#fff"/><path d="M-.5 1503.2779q569.5788 22.3025 659.9084-362.4155-65.2381 262.0543-378.8828 223.0249Q124.9579 1341.5848-.5 1302.5555q0 200.7224 0 200.7224zm677.4725.0001q35.1282-94.7856 20.0732-278.7812 10.0367 178.4199-80.293 278.7812 0 0 60.2198 0z" class="C D"/><path d="M734.5 981.5126q140 88.6862 190 288.2302-80-185.2428-190-255.2428-190-100-275-17.5 37.5-62.5 62.5-70.9163 70-16.5837 212.5 55.4289z" fill="#036" stroke="#036"/><path d="M1519.5 1374.5q0 0 5 0m-1705-1300q0 0 5 0" class="B F G"/><g class="D"><path d="M341.0385-.5q37 0 153.6923 0 17.0769 93.8298-11.3846 151.9149-17.0769 17.8723-5.6923 31.2766 11.3846-31.2766 22.7692-26.8085 51.2309 35.7446 39.8462 102.7659 0 35.7448-11.3846 58.0852-71.1539 60.3191 2.8461 78.1914 136.6154 8.9362 204.9231 24.5745-290.3077-13.4043-301.6923-42.4468-19.9231 2.234-19.9231-29.0426 0-60.3191 14.2308-78.1915-93.9231-122.8723-88.2308-265.851 0 0 0-4.4681z" class="E"/><path d="M364.3077 8.9361q56.9231 89.3618 56.9231 187.6596 0 35.7447 56.9231 53.6171 102.4615 49.1489 22.7692 107.234-68.3077 26.8085 11.3846 35.7447Q569.2308 411.0639 740 420q-296-4.4681-318.7692-44.6809-5.6923-13.4042 17.0769-35.7446 39.8461-22.3404 5.6923-53.6171Q330.1538 210 187.8461 196.5957 22.7692 196.5957 0 160.8511q0 0 0-160.8511 358.6154 0 358.6154 0 2.8461 4.4681 5.6923 8.9361z" fill="url(#D)" transform="translate(-.5 -.5)"/><path d="M102 923.8863q43.0689-14.3563 84.0868-16.4072 10.2545-14.3563 32.8144-8.2036 8.2036-10.2544 24.6108-8.2035 12.3054-18.4582 38.967-18.4582 20.509 0 30.7635 12.3054 20.509 0 30.7635 6.1527 8.2036 6.1527 10.2545 14.3563 4.1018 14.3563 84.0868 18.4581-332.2455 0-336.3473 0z" class="E"/><path d="M116.3563 923.8863q36.9162-6.1527 77.9341-8.2036 10.2545-14.3563 32.8144-8.2036 8.2036-10.2544 24.6108-8.2035 12.3054-18.4582 38.967-18.4582 20.509 0 30.7635 12.3054 20.509 0 30.7635 6.1527 8.2036 6.1527 10.2545 14.3563 2.0509 6.1527 82.0359 10.2545-328.1437 0-328.1437 0z" fill="url(#E)"/><path d="M-.5 594.5q55.0725 20 66.087 70 66.0869 30 313.913 55-380 0-380-10 0-5 0-115z" class="E"/><path d="M-.5 604.5q33.0435 20 44.058 70 66.0869 20 313.913 45Q-.5 719.5-.5 719.5q0 0 0-115z" fill="url(#F)"/><path d="M1199.5 139.5q-150.2532 110.9677-580 134.1935 308.781 11.613 579.2055-20.6451.7945-20.6452.7945-113.5484z" class="E"/><path d="M1199.5 160.1452q-86.6916 90.3226-516.4384 113.5484 308.781 11.6129 515.6438 0 .7946-20.6452.7946-113.5484z" fill="url(#F)"/><path d="M709.5 525.25q80.5479-18.0156 181.2329-27.0236 15.6621-3.0025 17.8996-27.0235 15.662-42.0367 78.3104-36.0314 29.0868-51.0446 89.4978-45.0394 49.2237 12.0105 64.8858 51.0446 8.9498 12.0105 17.8996 9.0079 4.4748 0 11.1872 6.0052 0 69.0602 2.2374 63.055Q709.5 525.25 709.5 525.25z" class="E"/><path d="M738.5867 525.2501q78.3104-12.0104 178.9954-21.0184 15.6621-3.0025 17.8996-27.0235 15.6621-42.0367 78.3105-36.0314 29.0868-51.0446 89.4977-45.0394 49.2238 12.0105 64.8858 51.0446 8.9497 12.0105 17.8995 9.0079 6.7124-6.0053 13.4248 0 0 69.0602 0 69.0602-460.9133 0-460.9133 0z" fill="url(#G)"/></g><g stroke="#fff"><path d="M1009.5 922q13 21.5 25 17.5 2-8-10-9-4 0-15-8.5z"/><circle cx="1038.25" cy="943.25" stroke-width="1.4" r="1.75"/><circle cx="1018.25" cy="958.25" r="1.25"/><path d="M444.5 1049.5q-18 4-15-15 10-25 30-50-12.5 26.5-10 55 0 7.5-5 10z"/><path d="M466.0718 976.4801q-17.0805-7.9647-35.2934 4.3369-4.0975 4.3276.2302 8.425 3.7807 2.5948 7.6286 1.4778 9.8551-15.783 27.4346-14.2398z" stroke-width=".7538"/><circle cx="424.5" cy="992" r="1.5"/><circle cx="447" cy="1057" r="2.5"/><circle cx="464.5" cy="1039.5" r="2.5"/><circle cx="469.5" cy="959.5" r="2.5"/><path d="M524.5 909.5q-68 9-90 40 0 17.5 20 10 20-35 70-50z"/><circle cx="488.25" cy="903.25" r="3.75"/><path d="M319.5 1029.5q-12.5-10-40-5-95 15-160 105 110-82.5 195-75 17.5-10 5-25zM142 1067q-13.5-7.5-27.5 2.5-23 24-30 95 10-50 55-80 7-9 2.5-17.5zm357.5 72.5q-30-60-105-60 75 25 95 85 20 0 10-25z"/><circle cx="138.25" cy="1053.25" r="3.75"/><circle cx="333.25" cy="1055.75" r="3.75"/><circle cx="213.25" cy="1033.25" r="3.75"/><circle cx="105.75" cy="1135.75" stroke-width=".6" r="2.25"/><circle cx="498.25" cy="1175.75" r="3.75"/><circle cx="513.25" cy="1140.75" r="3.75"/></g><ellipse cx="1.7252" cy="16.0268" rx="1.7252" ry="16.0268" transform="matrix(.866025 -.5 .5 .866025 225.47873297 806.63448406)" class="C H"/><path d="M242.9379 832.7093L259.5 805.7959" class="B I"/><ellipse cx="2.7815" cy="25.8396" rx="2.7815" ry="25.8396" transform="matrix(.866025 -.5 .5 .866025 964.64855034 608.66459998)" class="C K"/><path d="M992.7974 650.7042l26.7027-43.3918" class="B L"/><ellipse cx="1.1971" cy="11.1204" rx="1.1971" ry="11.1204" transform="matrix(.866025 -.5 .5 .866025 160.89388099 850.6195011)" class="C H"/><path d="M173.0082 868.7119l11.4919-18.6743" class="B I"/><ellipse cx="2.7815" cy="25.8396" rx="2.7815" ry="25.8396" transform="matrix(.866025 -.5 .5 .866025 824.64855034 508.66459998)" class="C K"/><path d="M852.7974 550.7042l26.7027-43.3918" class="B L"/><ellipse cx="4.2436" cy="37.2251" rx="4.2436" ry="37.2251" transform="matrix(.866025 -.5 .5 .866025 235.1757846 568.91281774)" class="C H"/><path d="M277.5866 626.7558l41.9132-57.1481" class="B I"/><a target="_blank" xlink:href="https://docker4dummies.labodunet.fr/#0"><title>Go to docker for dummies</title><circle cx="100" cy="100" fill="url(#H)" stroke-width=".9091" filter="url(#I)" r="100" transform="translate(99.5 229.5)" class="F G"/></a></svg>